<svg xmlns="http://www.w3.org/2000/svg" width="21.4" height="15.644" viewBox="0 0 21.4 15.644"><defs><style>.a{fill:#df3669;}</style></defs><g transform="translate(0 -68.857)"><path class="a" d="M2.4,175.021H1.254v-2.878H0v9.888H1.254v-2.878H2.4Z" transform="translate(0 -98.969)"/><path class="a" d="M139.873,71.273h5.571V70.111H147.6V68.857h-9.888v1.254h2.159Z" transform="translate(-131.958)"/><path class="a" d="M100.909,159.472H99.327v-2.805H90.453l-2.086,2.086H87.333v7.01h1.034l2.878,2.878h4.783l3.3-2.427v-1.171h1.582v-5.571Zm-5.96,5.78-1.133-.537.868-1.83H92.959l-.491-.777,1.348-2.844,1.133.537-.867,1.829h1.724l.491.777Z" transform="translate(-83.683 -84.14)"/><path class="a" d="M443,172.143h-.854v9.888H443a2.068,2.068,0,0,0,2.066-2.066v-5.756A2.068,2.068,0,0,0,443,172.143Z" transform="translate(-423.662 -98.969)"/></g></svg>