<svg xmlns="http://www.w3.org/2000/svg" width="25.67" height="14.368" viewBox="0 0 25.67 14.368"><defs><style>.a{fill:#df3669;}</style></defs><g transform="translate(0 -14.412)"><g transform="translate(0 14.413)"><path class="a" d="M10.418,33.446a1.793,1.793,0,1,0,2.2,1.255A1.794,1.794,0,0,0,10.418,33.446Zm.74,2.7a1.011,1.011,0,1,1,.708-1.242A1.012,1.012,0,0,1,11.158,36.15Z" transform="translate(-5.531 -25.944)"/><path class="a" d="M38.32,25.809a1.792,1.792,0,1,0,2.2,1.255A1.792,1.792,0,0,0,38.32,25.809Zm.739,2.7a1.011,1.011,0,1,1,.708-1.241A1.012,1.012,0,0,1,39.059,28.513Z" transform="translate(-22.493 -21.302)"/><path class="a" d="M4.9,21.742a1.956,1.956,0,0,1,2.4,1.37l7.083-1.938a1.956,1.956,0,0,1,3.773-1.033L18.679,20l.755-.207.629-.172L19.59,17.89l-.629.172-.163-.6c-.342-1.25-1.478-1.421-2.728-1.078l-2.694.738L12.5,15.712A2.783,2.783,0,0,0,9.437,14.5l-3.662,1c-.56.153-.767.414-.8.756l-2.9,3.762a1.058,1.058,0,0,0-2.039.568L.66,22.861a1.06,1.06,0,0,0,1.3.741l.247.9,1.319-.361A1.956,1.956,0,0,1,4.9,21.742Zm1.67-5.562,3.1-.848c.672-.184,1.728.045,1.889.637l.187.4-.7,1.4L6.63,18.97l-.421-1.539C6.047,16.84,5.9,16.364,6.568,16.18ZM5.155,17.3c.036.125.074.254.111.388l.421,1.537-2.552.7Z" transform="translate(0 -14.413)"/><path class="a" d="M28.727,40.438l-4.7-4.7a2.348,2.348,0,0,0-3.319,0l-2.512,2.513-2.512-2.513a2.348,2.348,0,0,0-3.319,0L8.4,39.7c-.45.449-1.252,1.037-1.846,1.626h23.1C29.4,41.056,29.062,40.773,28.727,40.438Z" transform="translate(-3.984 -26.958)"/></g></g></svg>