<svg xmlns="http://www.w3.org/2000/svg" width="18.133" height="17" viewBox="0 0 18.133 17"><defs><style>.a{fill:#df3669;}</style></defs><path class="a" d="M11.637,3.856a9.067,9.067,0,0,1,4.392,17H7.246a9.067,9.067,0,0,1,4.392-17Zm5.134,14.2A7.213,7.213,0,0,0,18.9,12.923H17.3V11.789H18.81a7.182,7.182,0,0,0-.754-2.267H16.171V8.389h1.138a7.385,7.385,0,0,0-.538-.6A7.229,7.229,0,0,0,13.9,6.022V7.256H12.771V5.75a7.357,7.357,0,0,0-2.267,0V7.256H9.371V6.022A7.229,7.229,0,0,0,6.5,7.789a7.385,7.385,0,0,0-.538.6H7.1V9.523H5.219a7.181,7.181,0,0,0-.754,2.267H5.971v1.133H4.377A7.213,7.213,0,0,0,6.5,18.057a7.386,7.386,0,0,0,.594.533H10.5l.648-9.067h.971l.648,9.067h3.406a7.386,7.386,0,0,0,.594-.533Z" transform="translate(-2.571 -3.856)"/></svg>